<?xml version="1.0" encoding="utf-8"?>
<!-- Generator: Adobe Illustrator 23.0.4, SVG Export Plug-In . SVG Version: 6.00 Build 0)  -->
<svg version="1.1" id="Layer_1" xmlns="http://www.w3.org/2000/svg" xmlns:xlink="http://www.w3.org/1999/xlink" x="0px" y="0px"
	 viewBox="0 0 566.9 175.7" style="enable-background:new 0 0 566.9 175.7;" xml:space="preserve">
<style type="text/css">
	.st0{fill:#FFFFFF;}
</style>
<g>
	<path class="st0" d="M79,5.7c0.7,0.8,1,1.5,1.1,2.2s0.1,1.5,0.1,2.5c-0.1,0.8-0.3,1.5-0.4,2.2s-0.4,1.7-1,3.1
		c-1,2.2-1.8,3.8-2.6,4.6c-2.1,1.1-4,1.4-5.8,0.7c-0.8-0.4-1.5-0.7-2.2-0.7c-1.3-0.3-2.6-0.6-4.2-0.7c-1.5-0.1-3.1-0.3-4.4-0.3
		c-2.4,0-4.7,0.3-6.8,1c-2.2,0.7-4.2,1.9-6,3.8c-1.8,1.8-3.2,4.3-4.3,7.5s-1.8,7.1-1.9,12c-0.1,2.4-0.3,4.7-0.3,6.8s0,4.6,0,7.4
		h10.4c2.8,0,5.7,0,8.9-0.1s5.6-0.1,6.9-0.4c-0.1,3.2-0.4,5.8-0.7,7.9c-0.3,2.1-0.7,3.8-1.3,5c-0.6,1.3-1.1,2.1-1.9,2.8
		c-0.8,0.7-1.8,1.3-2.9,1.7l0.3-0.3c-0.3,0.1-0.8,0.4-1.4,0.6c-0.7,0.3-1.1,0.4-1.4,0.6C55,75.9,52.5,76,49.6,76c-2.8,0-6,0-9.6,0
		c0,6.8,0,14,0,21.8s0,15.7,0.1,23.6s0.1,15.7,0.3,23.2c0.1,7.5,0.1,14.5,0.1,20.7c0,0.8-0.1,1.8-0.4,3.1c-0.3,1.3-1.1,2.1-2.5,2.5
		c-2.6,0.4-5.3,0.8-8.3,1c-2.9,0.1-5.1,0.3-6.7,0.3c-2.6,0-5.1-0.3-7.8-0.7c-0.1-0.8-0.3-1.8-0.3-2.9c0-1.1,0-2.4,0-3.6v-14.2
		c0-2.2,0-4.6,0.1-7.1s0.1-5,0.1-7.6v-29.2c0-5.3,0-10.4-0.1-15.3c0-4.6,0-9.7,0-15.3c-6.8-0.6-11.6-2-14.7-4.2
		c0.3-2.4,0.7-4.3,1-5.8c0.3-1.4,0.7-2.5,1.4-3.3c0.6-0.8,1.3-1.4,2.1-1.9c0.8-0.4,1.8-0.8,3.2-1.3c0.8-0.3,1.7-0.6,2.8-0.7
		c1.1-0.1,2.5-0.4,4.4-1c0-3.2,0.1-6.3,0.3-9.2s0.4-5.6,0.7-8.2V41c0.7-8.2,2.5-14.9,5.4-20.2s6.5-9.3,10.7-12.4
		c4.2-2.9,8.8-5,13.6-6.3s9.6-1.8,13.9-1.8c5.3,0,9.6,0.6,12.8,1.5C75.4,3,77.6,4.2,79,5.4l0,0V5.7z"/>
	<path class="st0" d="M163.9,113.7c0,10.1-1.3,19-3.6,26.7c-2.4,7.6-5.8,14-10.1,19.2c-4.3,5.1-9.5,9-15.3,11.5s-12.2,3.9-19.2,3.9
		c-15.4,0-27.4-4.7-35.7-14.2c-8.3-9.4-12.5-24.6-12.5-45.7c0-10.3,1.3-19.3,3.6-27c2.4-7.6,5.8-13.9,10.1-18.9
		c4.3-5,9.5-8.6,15.4-11.1c6-2.4,12.5-3.6,19.7-3.6c16,0,27.8,5,35.7,15C160,79.5,163.9,94.2,163.9,113.7z M94.3,114.2
		c0,8.1,0.6,14.7,1.7,20.3c1.1,5.4,2.6,9.9,4.6,13.2c1.9,3.3,4.2,5.8,6.8,7.2s5.6,2.2,8.8,2.2c2.9,0,5.6-0.7,8.2-2.2
		c2.5-1.4,4.9-3.9,6.8-7.2s3.5-7.8,4.6-13.2s1.7-12.1,1.7-20.2c0-15.1-1.9-25.8-5.8-32.1c-3.9-6.3-9.2-9.4-16-9.4
		c-2.9,0-5.7,0.8-8.2,2.2c-2.6,1.5-4.9,3.9-6.8,7.1s-3.5,7.5-4.7,12.8S94.3,106.7,94.3,114.2z"/>
	<path class="st0" d="M225.9,74.6c-3.9,0-7.4,0.8-10.4,2.6c-3.2,1.8-6,4-8.3,6.8l0.7-0.7v74.3c0,2.8-0.1,4.9-0.4,6.5s-1.1,3.3-2.4,5
		c-0.8,0.8-1.7,1.4-2.5,1.7s-1.9,0.6-3.2,0.8s-2.6,0.4-4.4,0.4c-1.8,0.1-3.9,0.1-6.5,0.1h-6.3c0.1-6.4,0.3-13.6,0.4-21.7
		c0.1-8.1,0.1-16.7,0.1-25.8V84.2c0-3.9-0.3-7.2-0.7-10.1s-1.1-5.6-1.9-7.9c1.8-1.9,5.1-3.9,10.1-6c0.8-0.3,1.5-0.4,2.1-0.4
		s1,0,1.4,0c2.2,0,4,0.4,5.4,1.4s2.5,2.2,3.2,3.6c2.4-1.8,4.9-3.2,7.2-4.3c2.4-1.1,4.7-2.1,6.9-2.9c2.5-0.8,5.1-1.4,7.6-1.9
		c2.5-0.4,5.1-0.7,8.1-0.7c7.5,0,13.6,1,18.3,2.9s8.3,4.7,11,8.3s4.4,8.1,5.3,13.3c0.8,5.3,1.4,11.4,1.4,18.3v36.4
		c0,6.5,0,12.8,0.1,18.6s0.1,11,0.4,15.7c-0.8,0.8-1.7,1.4-2.8,1.9c-1.1,0.4-2.4,0.8-4.2,1.1c-1.8,0.3-3.9,0.4-6.5,0.6
		c-2.6,0.1-6,0.3-10,0.3c-1.8-3.3-2.6-6.9-2.6-10.8V98.2c0-8.6-1.3-14.7-3.6-18.3C236.3,76.4,232,74.6,225.9,74.6z"/>
	<path class="st0" d="M353.4,13.3c1.8-0.7,3.3-1.1,4.9-1.4c1.4-0.3,3.1-0.4,4.9-0.4c1,0,2.5,0.1,4.6,0.3c2.1,0.1,5,0.4,8.6,0.7
		c0.3,0.8,0.6,1.5,0.6,2.2c0.1,0.7,0.1,1.3,0.1,1.5c0,1.3-0.3,2.5-0.7,3.8c-0.4,1.3-1.1,2.6-1.7,4.2l-0.3,0.3c0.1,0,0.1,0.1,0.1,0.4
		c-0.1,0.3-0.1,0.4-0.4,0.6c-1.8,4.2-4.4,9.6-8.1,16.3c-3.6,6.7-7.2,13.3-11,20.2c-3.2,5.7-6.3,11.1-9.2,16.5s-5,9.7-6.5,13.2
		c-0.7,1.8-1.3,3.5-1.8,5.3s-1,3.8-1.4,6v34.7c0,3.9,0,7.4,0.1,10.6c0.1,3.2,0.1,6.3,0.1,8.9v11.1c-0.8,0.8-1.7,1.5-2.5,2.1
		s-2.2,1-3.9,1.4c-1.7,0.4-3.9,0.6-6.7,0.7c-2.8,0.1-6.3,0.3-10.6,0.3c-1.7-3.9-2.4-7.8-2.4-11.8v-56c0-1.1,0-2.1,0-3.1
		c0-0.8-0.1-1.5-0.3-2.1c-1.3-3.2-3.1-7.2-5.1-12c-2.2-4.7-4.7-9.9-7.6-15.3c-2.1-4.3-4.3-8.8-6.8-13.3c-2.4-4.6-4.9-9.2-7.2-13.9
		c-2.6-5-5.1-10-7.8-15c-2.6-5-5-9.9-7.2-14.5c0-1.1,0.8-1.9,2.4-2.2c1.7-0.4,5.3-0.6,11.1-0.6h14c1.3,3.2,3.3,7.8,6,13.8
		c2.8,6,5.6,12.1,8.5,18.3c3.2,7.8,6,14.2,8.5,19.5c2.4,5.3,4.3,9.2,5.6,12L353.4,13.3z"/>
	<path class="st0" d="M460.4,113.7c0,10.1-1.3,19-3.6,26.7c-2.4,7.6-5.8,14-10.1,19.2c-4.3,5.1-9.5,9-15.3,11.5s-12.2,3.9-19.2,3.9
		c-15.4,0-27.4-4.7-35.7-14.2c-8.3-9.4-12.5-24.6-12.5-45.7c0-10.3,1.3-19.3,3.6-27s5.8-13.9,10.1-18.9c4.3-5,9.4-8.6,15.4-11.1
		c6-2.4,12.5-3.6,19.7-3.6c16,0,27.8,5,35.7,15C456.4,79.5,460.4,94.2,460.4,113.7z M390.7,114.2c0,8.1,0.6,14.7,1.7,20.3
		c1.1,5.4,2.6,9.9,4.6,13.2c1.9,3.3,4.2,5.8,6.8,7.2s5.6,2.2,8.8,2.2c2.9,0,5.6-0.7,8.2-2.2c2.5-1.4,4.9-3.9,6.8-7.2
		s3.5-7.8,4.6-13.2s1.7-12.1,1.7-20.2c0-15.1-1.9-25.8-5.8-32.1c-3.9-6.3-9.2-9.4-16-9.4c-2.9,0-5.7,0.8-8.2,2.2
		c-2.6,1.5-4.9,3.9-6.8,7.1s-3.5,7.5-4.7,12.8C391.2,100.5,390.7,106.7,390.7,114.2z"/>
	<path class="st0" d="M504.6,63.1c0.8,2.8,1.4,5.7,1.9,9c0.4,3.3,0.7,8.1,0.7,14.2l-2.4,43.4c0,5.1,0.4,9.3,1.1,12.5
		s1.8,5.7,3.2,7.6c1.4,1.8,3.1,3.1,5,3.8s4.2,1,6.7,1c3.8,0.3,7.2-0.3,10.4-1.8c3.3-1.5,6-3.5,7.8-5.7V71.8c0-2.8,0.1-5,0.4-6.7
		c0.3-1.7,1.1-3.3,2.4-5c1.7-1.4,3.5-2.2,5.6-2.5s5.8-0.4,11.1-0.6h6.3c-0.1,6.4-0.3,13.6-0.4,21.7c-0.1,8.1-0.1,16.7-0.1,25.8v40.6
		c0,3.9,0.3,7.2,0.7,10.1c0.4,2.9,1.1,5.6,1.9,7.9c-1.8,1.8-5.1,3.8-10.1,6c-0.8,0.3-1.5,0.4-2.1,0.4s-1,0-1.4,0
		c-2.2,0-4-0.6-5.4-1.5c-1.4-1.1-2.5-2.2-3.2-3.8c-2.4,1.8-4.9,3.2-7.2,4.4c-2.4,1.3-4.7,2.2-6.9,3.1c-2.6,0.8-5.1,1.4-7.6,1.9
		c-2.5,0.4-5.1,0.7-8.1,0.7c-7.4-0.3-13.3-1.4-17.9-3.3c-4.6-1.9-8.2-4.7-10.7-8.2c-2.6-3.5-4.3-7.8-5.3-12.8s-1.5-10.8-1.7-17.4
		l2.2-49.8c0-4.4-0.3-8.5-0.8-11.8c-0.6-3.3-1.4-6.5-2.2-9.4c1-0.8,2.4-1.8,4.3-3.1s4.4-2.6,7.8-4.2c1-0.3,1.7-0.4,2.2-0.4
		c0.4,0,0.8,0,1.3,0c3.3,0,6,1,7.6,2.9S504.1,61,504.6,63.1z"/>
</g>
</svg>
